<?xml version="1.0"?>
<svg xmlns="http://www.w3.org/2000/svg" xmlns:xlink="http://www.w3.org/1999/xlink" xmlns:svgjs="http://svgjs.com/svgjs" version="1.1" width="512" height="512" x="0" y="0" viewBox="0 0 512 512" style="enable-background:new 0 0 512 512" xml:space="preserve" class=""><g><path xmlns="http://www.w3.org/2000/svg" d="m66.407 326.814c39.298 1.585 94.005 4.797 131.964 11.215l.606.103 16.06 30.514c9.149 17.382 8.535 38.285-1.617 55.101-10.153 16.816-28.364 27.094-48.007 27.094h-.004c-20.74 0-39.773-11.491-49.432-29.844zm167.093-217.907c53.85-13.233 120.512-36.634 157.21-46.651 10.021-2.729 20.648-.33 28.756 6.807 7.151 6.296 11.532 15.83 11.532 26.017.002 52.648.002 193.203.002 245.851 0 10.189-4.381 19.723-11.533 26.019-8.108 7.138-18.736 9.537-28.769 6.805-36.689-10.017-103.348-33.417-157.198-46.65zm-18 4.125v209.947c-4.894-1.029-9.614-1.935-14.128-2.698-52.667-8.904-137.088-11.789-169.931-12.626h.027c-16.913-.406-31.464-14.95-31.464-33.893-.004-27.449-.004-84.061-.004-111.509 0-18.949 14.553-33.494 31.444-33.901 32.842-.833 117.262-3.717 169.928-12.622 4.514-.763 9.234-1.669 14.128-2.698zm233.499 20.21c36.428 10.954 63.001 44.781 63.001 84.765 0 39.979-26.567 73.802-63 84.764v-84.766z" fill="#ffffff" data-original="#000000" class=""/></g></svg>
