<svg id="logo" data-name="Layer 1" xmlns="http://www.w3.org/2000/svg" viewBox="0 0 315.89 50.87"><defs><style>.cls-1{fill:#fff;}</style></defs><path class="cls-1" d="M165.46,118.18a1,1,0,0,1,.25-.72.9.9,0,0,1,.69-.26h14.12a9,9,0,0,1,3.54.71,9.25,9.25,0,0,1,4.87,4.87,9,9,0,0,1,.72,3.59,8.5,8.5,0,0,1-.5,3,8,8,0,0,1-1.41,2.45,10.35,10.35,0,0,1,2.42,3.34,9.63,9.63,0,0,1,.9,4.11,9.16,9.16,0,0,1-.75,3.67,9.7,9.7,0,0,1-2,3,9.38,9.38,0,0,1-3,2.08,8.5,8.5,0,0,1-3.56.76H166.4a1,1,0,0,1-.68-.22.88.88,0,0,1-.26-.69Zm16,8.38a3,3,0,0,0-.89-2.17,3.16,3.16,0,0,0-1-.67,3.46,3.46,0,0,0-1.3-.25h-4.57v6.17h4.51a3.83,3.83,0,0,0,1.33-.22,2.77,2.77,0,0,0,1-.64,3,3,0,0,0,.68-1A3.12,3.12,0,0,0,181.48,126.56Zm1.13,12.36a3.47,3.47,0,0,0-.25-1.28,3.7,3.7,0,0,0-.68-1.13,3.47,3.47,0,0,0-1-.82,2.73,2.73,0,0,0-1.31-.32h-5.64v7.1h5.64a2.88,2.88,0,0,0,1.3-.29,3.66,3.66,0,0,0,1-.8,3.48,3.48,0,0,0,.69-1.14A3.52,3.52,0,0,0,182.61,138.92Z" transform="translate(-114.94 -106.15)"/><path class="cls-1" d="M193.78,135.3a14.16,14.16,0,0,1,.5-3.76,13.85,13.85,0,0,1,1.4-3.35,14.15,14.15,0,0,1,2.17-2.81,13.38,13.38,0,0,1,2.82-2.16,13.9,13.9,0,0,1,3.35-1.38,14.1,14.1,0,0,1,3.76-.49,13.81,13.81,0,0,1,9.86,4,14,14,0,0,1,3,4.42,13.78,13.78,0,0,1,1.1,5.5,14.1,14.1,0,0,1-.5,3.76,14.47,14.47,0,0,1-1.41,3.35,13.24,13.24,0,0,1-2.17,2.82,13.8,13.8,0,0,1-6.15,3.56,13.73,13.73,0,0,1-3.71.49,14.1,14.1,0,0,1-3.76-.49,13.93,13.93,0,0,1-3.35-1.39,14.13,14.13,0,0,1-2.82-2.17,13.86,13.86,0,0,1-3.57-6.17A14.1,14.1,0,0,1,193.78,135.3Zm7.77,0a7.76,7.76,0,0,0,.43,2.63,6.21,6.21,0,0,0,1.24,2.12,5.7,5.7,0,0,0,1.93,1.41,6.08,6.08,0,0,0,2.57.52,5.83,5.83,0,0,0,2.5-.52,5.65,5.65,0,0,0,1.89-1.41,6.27,6.27,0,0,0,1.19-2.12,8.32,8.32,0,0,0,0-5.22,6.71,6.71,0,0,0-1.19-2.17,5.58,5.58,0,0,0-1.89-1.48,5.69,5.69,0,0,0-2.5-.54,5.94,5.94,0,0,0-2.57.54,5.63,5.63,0,0,0-1.93,1.48,6.64,6.64,0,0,0-1.24,2.17A7.74,7.74,0,0,0,201.55,135.3Z" transform="translate(-114.94 -106.15)"/><path class="cls-1" d="M225.12,135.3a14.16,14.16,0,0,1,.5-3.76,13.85,13.85,0,0,1,1.4-3.35,14.15,14.15,0,0,1,2.17-2.81,13.38,13.38,0,0,1,2.82-2.16,13.9,13.9,0,0,1,3.35-1.38,14.1,14.1,0,0,1,3.76-.49,13.81,13.81,0,0,1,9.86,4,14,14,0,0,1,3,4.42,13.78,13.78,0,0,1,1.1,5.5,14.1,14.1,0,0,1-.5,3.76,14.47,14.47,0,0,1-1.41,3.35,13.24,13.24,0,0,1-2.17,2.82,13.8,13.8,0,0,1-6.15,3.56,13.73,13.73,0,0,1-3.71.49,14.1,14.1,0,0,1-3.76-.49A13.93,13.93,0,0,1,232,147.4a14.13,14.13,0,0,1-2.82-2.17,13.86,13.86,0,0,1-3.57-6.17A14.1,14.1,0,0,1,225.12,135.3Zm7.77,0a7.76,7.76,0,0,0,.43,2.63,6.21,6.21,0,0,0,1.24,2.12,5.7,5.7,0,0,0,1.93,1.41,6.08,6.08,0,0,0,2.57.52,5.83,5.83,0,0,0,2.5-.52,5.65,5.65,0,0,0,1.89-1.41,6.27,6.27,0,0,0,1.19-2.12,8.32,8.32,0,0,0,0-5.22,6.71,6.71,0,0,0-1.19-2.17,5.58,5.58,0,0,0-1.89-1.48,5.69,5.69,0,0,0-2.5-.54,5.94,5.94,0,0,0-2.57.54,5.63,5.63,0,0,0-1.93,1.48,6.64,6.64,0,0,0-1.24,2.17A7.74,7.74,0,0,0,232.89,135.3Z" transform="translate(-114.94 -106.15)"/><path class="cls-1" d="M257.27,117.56a1.14,1.14,0,0,1,.44-1,4.88,4.88,0,0,1,1.24-.63l4.83-1.68.2,0h.18a1.12,1.12,0,0,1,1.06.46,2.43,2.43,0,0,1,.26,1.2l0,5.85h2.92a1.56,1.56,0,0,1,1.1.4,1.59,1.59,0,0,1,.43,1.22v4.1a1.72,1.72,0,0,1-.43,1.31,1.49,1.49,0,0,1-1.1.42h-2.92l0,18a1.53,1.53,0,0,1-.47,1.22,1.85,1.85,0,0,1-1.29.41h-4.81a1.45,1.45,0,0,1-1.64-1.63l0-18h-2.19c-1.1,0-1.64-.58-1.64-1.73v-4.1a1.44,1.44,0,0,1,1.64-1.62h2.19Z" transform="translate(-114.94 -106.15)"/><path class="cls-1" d="M278,140.39a6.71,6.71,0,0,0,1.24,1,11,11,0,0,0,1.29.64,7.48,7.48,0,0,0,1.09.35,3.33,3.33,0,0,0,.64.1l1,0a5.19,5.19,0,0,0,1.2-.19,2.61,2.61,0,0,0,1-.52,1.26,1.26,0,0,0,.41-1,1.65,1.65,0,0,0-.23-.95,2,2,0,0,0-.68-.6,5.87,5.87,0,0,0-1.1-.43l-1.45-.45a17.28,17.28,0,0,1-4.22-1.64,9.62,9.62,0,0,1-2.63-2.14,7,7,0,0,1-1.35-2.54,10.75,10.75,0,0,1-.38-2.87,7,7,0,0,1,2.7-5.69,9.53,9.53,0,0,1,3.11-1.6,13.66,13.66,0,0,1,4-.56,13.33,13.33,0,0,1,2.51.22,10.61,10.61,0,0,1,2.24.7,11.45,11.45,0,0,1,2.07,1.24,16.29,16.29,0,0,1,2,1.8,1.29,1.29,0,0,1,.37.79,1.08,1.08,0,0,1-.48.8c-.55.46-1.08.9-1.58,1.34s-1,.93-1.56,1.47a1.37,1.37,0,0,1-.52.27,1.1,1.1,0,0,1-.48,0,1.57,1.57,0,0,1-.45-.22,1.85,1.85,0,0,1-.38-.36,3.84,3.84,0,0,0-1.71-1.12,6.25,6.25,0,0,0-1.78-.28,3.27,3.27,0,0,0-1.66.36,1.1,1.1,0,0,0-.58,1.11,1.21,1.21,0,0,0,.42.86,3,3,0,0,0,.91.5,9.65,9.65,0,0,0,1.15.31,10.29,10.29,0,0,1,1.12.26,34.4,34.4,0,0,1,3.51,1.34,10.74,10.74,0,0,1,2.76,1.78,7.28,7.28,0,0,1,1.82,2.52,8.69,8.69,0,0,1,.65,3.57,8.23,8.23,0,0,1-.84,3.77,8,8,0,0,1-2.31,2.79,10.59,10.59,0,0,1-3.48,1.72,15.06,15.06,0,0,1-4.33.6,15.52,15.52,0,0,1-2.68-.24,12.73,12.73,0,0,1-2.63-.75,12.27,12.27,0,0,1-2.43-1.34,9.38,9.38,0,0,1-2-2,2,2,0,0,1-.35-.63,1.68,1.68,0,0,1-.11-.65,1.54,1.54,0,0,1,.13-.58,1.16,1.16,0,0,1,.37-.46L276,140a1,1,0,0,1,.91-.29A2.89,2.89,0,0,1,278,140.39Z" transform="translate(-114.94 -106.15)"/><path class="cls-1" d="M325.38,122a2.46,2.46,0,0,1,.39.51,1.34,1.34,0,0,1,.16.7V155.5a1.25,1.25,0,0,1-.17.64,1.54,1.54,0,0,1-.43.48,2,2,0,0,1-.55.3,1.68,1.68,0,0,1-.55.11h-4.88a1.48,1.48,0,0,1-1.2-.45,1.63,1.63,0,0,1-.37-1.08v-9.86a17,17,0,0,1-1.27,1.28,9.88,9.88,0,0,1-1.52,1.17,7.74,7.74,0,0,1-1.81.86,6.51,6.51,0,0,1-2.1.33,13,13,0,0,1-9.61-4.05,13.75,13.75,0,0,1-2.78-4.44,15.6,15.6,0,0,1,0-11,13.77,13.77,0,0,1,2.78-4.42,12.92,12.92,0,0,1,4.23-3,13.22,13.22,0,0,1,5.38-1.07,6.56,6.56,0,0,1,2.37.42,9.53,9.53,0,0,1,2,1.08,10.62,10.62,0,0,1,1.68,1.44,20,20,0,0,1,1.35,1.57l.92-2.58a3.44,3.44,0,0,1,.49-1.15,1.21,1.21,0,0,1,1.08-.46h3.24a2.91,2.91,0,0,1,.57.06A1.3,1.3,0,0,1,325.38,122ZM305.46,135.3a7.4,7.4,0,0,0,.46,2.64,6.41,6.41,0,0,0,1.26,2.14,6.11,6.11,0,0,0,1.95,1.44,5.9,5.9,0,0,0,2.5.53,6.67,6.67,0,0,0,2.62-.53,7.12,7.12,0,0,0,2.15-1.44,6.8,6.8,0,0,0,2-4.78V135a6.63,6.63,0,0,0-.63-2.48,7,7,0,0,0-1.48-2,7.15,7.15,0,0,0-2.11-1.36,6.52,6.52,0,0,0-2.53-.5,5.9,5.9,0,0,0-2.5.53,6,6,0,0,0-1.95,1.45,6.62,6.62,0,0,0-1.26,2.14A7.19,7.19,0,0,0,305.46,135.3Z" transform="translate(-114.94 -106.15)"/><path class="cls-1" d="M356.12,148.43a1.23,1.23,0,0,1-.59.3,3.05,3.05,0,0,1-.58.07h-3.21a1.46,1.46,0,0,1-.66-.14,1.43,1.43,0,0,1-.47-.37,2.2,2.2,0,0,1-.32-.53,3.48,3.48,0,0,1-.21-.62l-.45-2.08a5.29,5.29,0,0,1-1.06,1.39,8.68,8.68,0,0,1-1.84,1.35,11.51,11.51,0,0,1-5.63,1.42,9.42,9.42,0,0,1-4.3-.94,9.23,9.23,0,0,1-3.16-2.55,11.3,11.3,0,0,1-1.95-3.78,15.64,15.64,0,0,1-.66-4.6V123.41a1.8,1.8,0,0,1,.36-1.22,1.36,1.36,0,0,1,1.11-.42h4.92a1.91,1.91,0,0,1,1.25.31,1.61,1.61,0,0,1,.34,1.2v13.87a4.47,4.47,0,0,0,.35,1.74,4.87,4.87,0,0,0,.95,1.44,4.41,4.41,0,0,0,1.39,1,4,4,0,0,0,1.7.37,6.12,6.12,0,0,0,1.66-.26,5.65,5.65,0,0,0,1.66-.8,4.47,4.47,0,0,0,1.27-1.39,3.92,3.92,0,0,0,.51-2.05V123.35a2.14,2.14,0,0,1,.14-.73,1.12,1.12,0,0,1,.42-.55,1.8,1.8,0,0,1,.52-.23,1.91,1.91,0,0,1,.56-.07H355a1.5,1.5,0,0,1,1.72,1.64v23.81a1.6,1.6,0,0,1-.18.75,1.41,1.41,0,0,1-.5.53Z" transform="translate(-114.94 -106.15)"/><path class="cls-1" d="M384.42,145.56a14.1,14.1,0,0,1-4.22,2.69,12.74,12.74,0,0,1-4.95,1,14.46,14.46,0,0,1-10.07-4,14.2,14.2,0,0,1-3.1-4.44,13.29,13.29,0,0,1-1.15-5.55,14.11,14.11,0,0,1,.46-3.63,14.25,14.25,0,0,1,1.29-3.29,13.73,13.73,0,0,1,2.05-2.82,12.94,12.94,0,0,1,2.69-2.2,13.21,13.21,0,0,1,3.23-1.42,13,13,0,0,1,3.68-.51,12.67,12.67,0,0,1,3.43.46,14.05,14.05,0,0,1,3.11,1.32,13,13,0,0,1,2.67,2.05,13.63,13.63,0,0,1,2.09,2.6,12.79,12.79,0,0,1,1.35,3,11.57,11.57,0,0,1,.48,3.31c0,.74,0,1.34,0,1.81a2,2,0,0,1-.33,1.12,1.61,1.61,0,0,1-1,.57,9.43,9.43,0,0,1-2,.16H368.76a5.3,5.3,0,0,0,.86,2.28,5.46,5.46,0,0,0,1.5,1.46,5.89,5.89,0,0,0,1.81.77,7.46,7.46,0,0,0,1.81.24,8.62,8.62,0,0,0,1.57-.16,11.19,11.19,0,0,0,1.56-.43,8.45,8.45,0,0,0,1.39-.62,4.39,4.39,0,0,0,1-.73,4.29,4.29,0,0,1,.58-.41,1,1,0,0,1,1.09.05,4.64,4.64,0,0,1,.65.55l2.25,2.56a1.3,1.3,0,0,1,.3.5,1.68,1.68,0,0,1,.06.45,1.17,1.17,0,0,1-.23.74A3.13,3.13,0,0,1,384.42,145.56Zm-10.24-17.72a4,4,0,0,0-1.6.33,5.92,5.92,0,0,0-1.46.88,8,8,0,0,0-1.22,1.25,7.63,7.63,0,0,0-.89,1.43h10.88a14.29,14.29,0,0,0-1-1.53,7,7,0,0,0-1.19-1.24,5.3,5.3,0,0,0-1.54-.83A6.36,6.36,0,0,0,374.18,127.84Z" transform="translate(-114.94 -106.15)"/><path class="cls-1" d="M396,140.39a6.71,6.71,0,0,0,1.24,1,11,11,0,0,0,1.29.64,7.48,7.48,0,0,0,1.09.35,3.38,3.38,0,0,0,.63.1l1,0a5.27,5.27,0,0,0,1.2-.19,2.61,2.61,0,0,0,1-.52,1.3,1.3,0,0,0,.41-1,1.73,1.73,0,0,0-.23-.95,2,2,0,0,0-.68-.6,6.16,6.16,0,0,0-1.1-.43l-1.46-.45a17.36,17.36,0,0,1-4.21-1.64,9.62,9.62,0,0,1-2.63-2.14,7,7,0,0,1-1.35-2.54,10.75,10.75,0,0,1-.38-2.87,7,7,0,0,1,2.7-5.69,9.53,9.53,0,0,1,3.11-1.6,13.61,13.61,0,0,1,4-.56,13.33,13.33,0,0,1,2.51.22,10.52,10.52,0,0,1,2.23.7,11.53,11.53,0,0,1,2.08,1.24,16.29,16.29,0,0,1,2,1.8,1.35,1.35,0,0,1,.37.79,1.08,1.08,0,0,1-.48.8c-.55.46-1.08.9-1.58,1.34s-1,.93-1.57,1.47a1.27,1.27,0,0,1-.51.27,1.15,1.15,0,0,1-.49,0,1.65,1.65,0,0,1-.44-.22,2.19,2.19,0,0,1-.39-.36,3.75,3.75,0,0,0-1.7-1.12,6.25,6.25,0,0,0-1.78-.28,3.27,3.27,0,0,0-1.66.36,1.1,1.1,0,0,0-.58,1.11,1.21,1.21,0,0,0,.42.86,3,3,0,0,0,.91.5,9.65,9.65,0,0,0,1.15.31,10.29,10.29,0,0,1,1.12.26,34.4,34.4,0,0,1,3.51,1.34,10.74,10.74,0,0,1,2.76,1.78,7.28,7.28,0,0,1,1.82,2.52,8.69,8.69,0,0,1,.65,3.57,8.23,8.23,0,0,1-.84,3.77,8,8,0,0,1-2.31,2.79,10.69,10.69,0,0,1-3.48,1.72,15.06,15.06,0,0,1-4.33.6,15.43,15.43,0,0,1-2.68-.24,13,13,0,0,1-2.64-.75,12.48,12.48,0,0,1-2.42-1.34,9.38,9.38,0,0,1-2-2,2,2,0,0,1-.35-.63,1.68,1.68,0,0,1-.11-.65,1.54,1.54,0,0,1,.13-.58,1.08,1.08,0,0,1,.37-.46L394,140a1,1,0,0,1,.91-.29A2.89,2.89,0,0,1,396,140.39Z" transform="translate(-114.94 -106.15)"/><path class="cls-1" d="M418.18,117.56a1.17,1.17,0,0,1,.44-1,4.88,4.88,0,0,1,1.24-.63l4.83-1.68.21,0h.18a1.11,1.11,0,0,1,1.05.46,2.32,2.32,0,0,1,.27,1.2l0,5.85h2.92a1.61,1.61,0,0,1,1.11.4,1.63,1.63,0,0,1,.42,1.22v4.1a1.76,1.76,0,0,1-.42,1.31,1.53,1.53,0,0,1-1.11.42h-2.92l0,18a1.57,1.57,0,0,1-.47,1.22,1.88,1.88,0,0,1-1.3.41h-4.81a1.45,1.45,0,0,1-1.64-1.63l0-18H416c-1.09,0-1.64-.58-1.64-1.73v-4.1a1.44,1.44,0,0,1,1.64-1.62h2.19Z" transform="translate(-114.94 -106.15)"/><path class="cls-1" d="M153.19,132.77a12.22,12.22,0,0,0-.63-2.29,13.38,13.38,0,0,0-1-2.17l-.05-.08a3.35,3.35,0,0,1-.23-3.09,13.51,13.51,0,0,0,.8-2.55,14.23,14.23,0,0,0,.27-2.32,13.63,13.63,0,0,0-.11-2.3,13.41,13.41,0,0,0-.5-2.29,14.9,14.9,0,0,0-.9-2.14,13.67,13.67,0,0,0-6.64-6.25,14,14,0,0,0-4.52-1.08,3.15,3.15,0,0,0-.44,0H139l-.3,0h-20.4a3.34,3.34,0,0,0-3.33,3.34v20a2.62,2.62,0,0,0,.76,1.22,7.46,7.46,0,0,0,3.07,1.61,8.8,8.8,0,0,0,5.67-.25,8.53,8.53,0,0,0,3.27-2.37l1.24-1.36c.89-1,1.78-1.92,2.67-2.86a.68.68,0,0,0-.3-1.11l-8.27-2.61a.25.25,0,0,1-.1-.41l1.32-1.32a1.69,1.69,0,0,1,1.28-.48l4.1.28,1.38.09,2.11.14,2.74.19a1.23,1.23,0,0,0,1-.39l1.45-1.56a8.14,8.14,0,0,1,3.55-2.07h0a1.32,1.32,0,0,1,1.65,1.65,8.16,8.16,0,0,1-2.08,3.54l-1.56,1.43a1.21,1.21,0,0,0-.4,1l.2,3,.23,3.49.25,3.84a1.72,1.72,0,0,1-.5,1.33l-1.23,1.22a.31.31,0,0,1-.51-.13l-2.59-8.25a.69.69,0,0,0-1.11-.3l-4.94,4.14c-2.83,2.38-5.59,4.84-8.37,7.28L116,143.68a2.84,2.84,0,0,0-1.08,1.86c-.09,1.38,1.21,2.88,3.26,3.27h21.56a13.24,13.24,0,0,0,4.67-.82,13.78,13.78,0,0,0,4.12-2.37,14,14,0,0,0,3-3.64,12.86,12.86,0,0,0,1.61-4.46A13.08,13.08,0,0,0,153.19,132.77Z" transform="translate(-114.94 -106.15)"/></svg>