<?xml version="1.0" encoding="UTF-8"?>
<svg id="_圖層_1" data-name="圖層 1" xmlns="http://www.w3.org/2000/svg" viewBox="0 0 450.88 112.47">
  <defs>
    <style>
      .cls-1 {
        fill: #ffffff;
      }
    </style>
  </defs>
  <g>
    <path class="cls-1" d="M31.68,1h-11.24V12.37H0v11.24H7.29l4.15,14.11H0v11.24H20.07v7H1.66c3.37,1.89,6.93,3.6,10.73,5,2.44,.9,4.99,1.67,7.67,2.29,.84,.19,1.69,.37,2.56,.54,2.13,.4,4.33,.7,6.62,.89,.92,.07,1.85,.13,2.79,.17,.37,.02,.73,.04,1.1,.05,2.17,.05,4.29,.06,6.37,.04,4.38-.04,8.57-.25,12.59-.59v-8.37h-20.07v-7h20.07v-11.24h-11.75l4.81-14.11h6.94V12.37H31.68V1Zm1.61,22.61l-4.81,14.11h-5.33l-4.15-14.11h14.28Z"/>
    <path class="cls-1" d="M32.04,74.01c-.73,.04-1.45,.09-2.17,.12-2.76,.12-5.49,.18-8.17,.16-.54,0-1.09,0-1.63-.02-2.97-.06-5.87-.24-8.72-.47-1.56,8.14-4.86,14.86-9.98,20.3v13.72l2.94-2.43c7.69-6.35,12.91-14.25,15.77-23.88v29.51h11.98v-28.09c3,8.69,8.32,16.46,15.57,22.46l3.29,2.72,.36,.28v-13.56c-5.84-5.87-9.69-13.35-11.12-21.5-2.72,.3-5.42,.52-8.1,.68Z"/>
    <path class="cls-1" d="M91.17,90.75v-9.39c7.5-1.13,13.27-7.59,13.27-15.4v-17.66c-1.67,2.25-3.67,4.33-5.98,6.25-.88,.73-1.81,1.42-2.77,2.1-.8,.57-1.63,1.13-2.49,1.66v7.64c0,2.39-1.95,4.34-4.34,4.34h-16.13c-1.81,0-3.46-.74-4.65-1.92-3.73,.97-7.62,1.82-11.64,2.56,1.81,4.05,5.07,7.3,9.13,9.09-1.75,6.04-4.9,11.58-9.27,16.2v14.65l3.15-2.57c8.54-6.97,14.43-16.36,17.09-26.77h3.38v9.2c0,11.29,9.43,20.47,21.03,20.47h5.46v-11.24h-5.46c-5.4,0-9.79-4.14-9.79-9.23Z"/>
    <path class="cls-1" d="M66.13,56.65h19.66c2.62-1.09,5.11-2.27,7.41-3.55,1.87-1.04,3.6-2.15,5.26-3.3,2.19-1.52,4.18-3.12,5.98-4.81V22.28c0-11.71-9.53-21.23-21.23-21.23h-28.32V63.7c0,.12,.02,.23,.02,.35,3.92-.41,7.66-.96,11.23-1.64v-5.76Zm0-11.24v-10.85h27.07v10.85h-27.07Zm0-33.12h17.08c5.51,0,9.99,4.48,9.99,9.99v1.04h-27.07V12.29Z"/>
  </g>
  <g>
    <path class="cls-1" d="M425.81,70.48c-.78-2.29-2.91-3.78-5.44-3.78h-56.57v10.43h44.86c-2.34,1.95-4.95,4.03-7.43,5.95h-55.88v10.43h52.69c-.71,5-3.46,6.83-14.93,6.83h-11.89v10.43h11.89c20.88,0,24.68-8.56,25.43-17.26h40.07v-10.43h-30.74c8.33-7.19,8.92-9.73,7.95-12.6Z"/>
    <path class="cls-1" d="M446.51,55V17.83c0-10.85-6.34-15.79-12.22-15.79h-10.6V13.46h10.37c.32,.36,1.03,1.66,1.03,4.37v.46h-11.4v11.42h11.4v3.35h-11.4v11.42h11.4v7.4c-.18,0-.38,0-.54,0h-75.14c-.09,0-.16,0-.25,.01v-7.41h11.4v-11.42h-11.4v-3.35h11.4v-11.42h-11.4v-2.26c0-1.6,.72-2.48,.8-2.57h10.6V2.04h-10.6c-6.74,0-12.22,6.28-12.22,13.99V55.05c-3.86,2.94-4.66,7.32-4.66,10.42v9.91h9.93v-9.91c0-1.96,0-3.66,6.4-3.66h75.14c6.4,0,6.4,.85,6.4,3.66v8.48h9.93v-8.48c0-5.28-1.87-8.5-4.38-10.47Z"/>
    <path class="cls-1" d="M396.02,49.12l1.15,.83,1.05-.83c5.21-4.1,11.46-6.26,18.08-6.26h1.78V4.15h-1.78c-6.81,0-13.42,1.88-19.18,5.45-5.76-3.57-12.37-5.45-19.18-5.45h-1.78V42.86h1.78c6.61,0,12.87,2.16,18.08,6.26Zm4.63-33.34c3.2-2.04,6.69-3.4,10.39-4.07v24.43c-3.62,.52-7.1,1.58-10.39,3.15V15.78Zm-17.44-4.06c3.7,.67,7.19,2.03,10.39,4.08v23.49c-3.29-1.57-6.77-2.63-10.39-3.15V11.72Z"/>
  </g>
  <g>
    <g>
      <path class="cls-1" d="M126.65,84.32c-.51-.97-1.17-1.74-1.99-2.31-.82-.57-1.61-.86-2.37-.86-.39,0-.79,.05-1.19,.15-.4,.1-.77,.3-1.09,.6-.32,.29-.59,.67-.81,1.14-.22,.47-.33,1.06-.33,1.79,0,.62,.09,1.14,.26,1.56s.43,.78,.76,1.09c.33,.31,.73,.6,1.19,.86,.46,.26,.98,.53,1.56,.8,.83,.42,1.69,.87,2.59,1.37,.9,.5,1.72,1.17,2.45,2,.74,.83,1.35,1.86,1.83,3.09,.48,1.23,.73,2.76,.73,4.59,0,2.11-.26,3.93-.78,5.47-.52,1.54-1.22,2.81-2.09,3.81-.88,1-1.88,1.75-3.01,2.23-1.13,.48-2.29,.73-3.49,.73-1.75,0-3.44-.46-5.08-1.37-1.64-.91-3-2.22-4.08-3.91l3.87-5.91c.6,1.11,1.39,2.03,2.37,2.77,.98,.74,1.95,1.11,2.92,1.11,.44,0,.86-.07,1.28-.21,.42-.14,.78-.36,1.09-.67,.31-.31,.56-.73,.74-1.24,.18-.52,.28-1.14,.28-1.87s-.12-1.28-.35-1.76c-.23-.48-.56-.92-.98-1.32-.43-.4-.96-.76-1.59-1.09-.63-.33-1.35-.68-2.16-1.06-.78-.38-1.55-.83-2.3-1.35-.75-.52-1.42-1.18-2-2s-1.06-1.8-1.42-2.96c-.36-1.16-.54-2.57-.54-4.23,0-2.04,.28-3.78,.83-5.24,.55-1.45,1.28-2.64,2.18-3.58,.9-.93,1.91-1.62,3.04-2.05,1.13-.43,2.27-.65,3.42-.65,1.38,0,2.79,.38,4.23,1.14,1.44,.76,2.7,1.88,3.78,3.37l-3.77,5.96Z"/>
      <path class="cls-1" d="M145.32,82.35v29.13h-5.91v-29.13h-6.91v-7.57h19.73v7.57h-6.91Z"/>
      <path class="cls-1" d="M175.61,103.69c-.5,1.82-1.2,3.37-2.13,4.67-.92,1.3-2.03,2.31-3.33,3.03-1.3,.73-2.75,1.09-4.34,1.09s-3.06-.36-4.35-1.09c-1.29-.73-2.38-1.74-3.28-3.03-.9-1.3-1.59-2.85-2.07-4.67-.48-1.81-.73-3.83-.73-6.04v-22.86h5.88v22.14c0,1,.09,1.95,.26,2.85,.17,.9,.44,1.7,.79,2.41,.36,.71,.83,1.27,1.42,1.69,.59,.41,1.3,.62,2.13,.62s1.54-.21,2.13-.62c.59-.41,1.07-.98,1.43-1.69,.37-.71,.63-1.51,.79-2.41,.16-.9,.24-1.85,.24-2.85v-22.14h5.91v22.86c0,2.21-.25,4.23-.74,6.04Z"/>
      <path class="cls-1" d="M202.59,93.03c0,3.22-.4,5.99-1.19,8.32-.79,2.33-1.84,4.25-3.14,5.75-1.3,1.5-2.77,2.61-4.41,3.32-1.64,.71-3.29,1.06-4.98,1.06h-9.12v-36.7h8.85c1.73,0,3.43,.3,5.11,.91,1.68,.6,3.18,1.61,4.49,3.01,1.31,1.4,2.37,3.28,3.18,5.63,.81,2.35,1.21,5.25,1.21,8.71Zm-6.15,0c0-2.07-.22-3.79-.67-5.16-.45-1.36-1.05-2.45-1.8-3.27s-1.6-1.39-2.56-1.74c-.96-.35-1.94-.52-2.95-.52h-2.94v21.46h2.8c1.06,0,2.08-.18,3.06-.54,.98-.36,1.84-.96,2.59-1.79,.75-.83,1.35-1.93,1.8-3.32,.45-1.38,.67-3.09,.67-5.13Z"/>
      <path class="cls-1" d="M216.31,95.94v15.55h-5.91v-15.55l-9.19-21.15h7.15l5.22,13.58,5.22-13.58h6.91l-9.4,21.15Z"/>
    </g>
    <g>
      <path class="cls-1" d="M134.56,62.07l-12.49-18.92h-.1v18.92h-7.93V20.97h7.93v16.72h.14l12.02-16.72h10.16l-14.49,18.92,15.34,22.17h-10.59Z"/>
      <path class="cls-1" d="M158.69,23.93c0,.74-.12,1.42-.36,2.06-.24,.64-.55,1.19-.95,1.66-.4,.46-.87,.83-1.42,1.1-.55,.27-1.13,.41-1.73,.41-1.27,0-2.33-.51-3.18-1.54-.86-1.02-1.28-2.25-1.28-3.69,0-.7,.11-1.36,.33-2,.22-.64,.54-1.19,.95-1.65,.41-.46,.89-.84,1.42-1.13,.54-.29,1.12-.44,1.76-.44,.6,0,1.18,.14,1.73,.41,.55,.27,1.03,.64,1.42,1.1,.4,.46,.71,1.02,.95,1.66s.36,1.33,.36,2.06Zm-8.36,38.14v-28.91h7.79v28.91h-7.79Z"/>
    </g>
    <path class="cls-1" d="M200.9,34.12l11.9-14.28s2.61-5.48,1.81-6.78l.02-.02s-.04-.04-.07-.05c-.02-.02-.05-.05-.07-.08l-.03,.03c-1.4-.6-6.43,2.78-6.43,2.78l-12.38,13.88-25.58-4.05-2.03,2.59,16.43,6.7,2.98,4.47-7.73,10.88-6.63-1.42-1.02,1.38,5.24,4.06-.42,2.41,.05-.02-.02,.05,2.34-.77,4.77,4.6,1.22-1.23-2.37-6.35,9.63-9.25,4.86,2.3,9.03,15.27,2.27-2.39-7.76-24.72Z"/>
  </g>
  <g>
    <path class="cls-1" d="M234.92,27.02v6.65h11.24v-6.65c0-11.6-7.89-21.03-17.59-21.03h-4.24v11.24h4.24c3,0,6.34,4.02,6.34,9.79Z"/>
    <path class="cls-1" d="M327.84,46.45l3.83-4.96c2.26-2.93,2.65-6.8,1.02-10.11-1.64-3.34-4.98-5.42-8.72-5.42h-18.07v11.24h14.88l-1.83,2.38c-2.93,3.8-4.69,8.44-5.04,13.25h-13.42v11.24h13.35v1.49c0,8.55-7.09,15.51-15.8,15.51v11.24c14.91,0,27.04-12,27.04-26.75v-1.49h11.99v-11.24h-11.84c.32-2.32,1.2-4.53,2.62-6.37Z"/>
    <path class="cls-1" d="M311.63,2.49c0-.84-.03-1.66-.07-2.49h-9.68c.05,.82,.09,1.65,.09,2.49,0,7.98-2.37,15.22-6.2,20.57v13.73c5.76-4.19,10.37-10.57,13.1-18.21h28.18V7.34h-25.67c.16-1.59,.25-3.2,.25-4.85Z"/>
    <path class="cls-1" d="M251.05,88.7v-28.24c0-11.29-7.89-20.47-17.59-20.47h-4.24v11.24h4.24c3.44,0,6.34,4.23,6.34,9.23v30.28c0,5-2.9,9.23-6.34,9.23h-4.24v11.24h4.24c6.43,0,12.04-4.05,15.11-10.05,8.34,5.9,18.7,9.26,29.4,9.26h58.49v-11.24h-58.49c-10.23,0-20.03-3.87-26.93-10.48Z"/>
    <path class="cls-1" d="M262.79,49.18c0,7.1-1.6,14.03-4.62,20.27v19.37l1.36-1.55c9.18-10.47,14.24-23.99,14.24-38.09v-7.38h4.47c2.56,0,4.64,2.21,4.64,4.93v27.97c0,3.92-3.03,7.12-6.76,7.12h-4.59v11.24h4.59c9.93,0,18-8.24,18-18.36v-27.97c0-8.92-7.12-16.18-15.88-16.18h-4.47v-7.55h19.35V11.77h-16.75V.16h-11.24V11.77h-11.35v11.24h9.02v26.17Z"/>
  </g>
</svg>