<?xml version="1.0" encoding="UTF-8"?>
<svg id="Layer_1" data-name="Layer 1" xmlns="http://www.w3.org/2000/svg" viewBox="0 0 242 237">
  <defs>
    <style>
      .cls-1 {
        fill: #ffdeb4;
      }

      .cls-2 {
        fill: #b2a4ff;
      }

      .cls-3 {
        fill: #8980d6;
      }
    </style>
  </defs>
  <circle class="cls-3" cx="126.5" cy="121.5" r="115.5"/>
  <circle class="cls-2" cx="115.5" cy="115.5" r="115.5"/>
  <path class="cls-1" d="M115.36,16.55c-54.5,0-98.72,44.23-98.72,98.72s44.23,98.72,98.72,98.72,98.72-44.23,98.72-98.72S169.85,16.55,115.36,16.55Zm49.36,150.55h-30.6c-2.96,0-5.63-1.68-6.81-4.44s-.69-5.82,1.28-8l15.99-17.67c6.61-7.4,10.37-16.78,10.37-26.46s-4.05-19.15-11.45-26.16c-7.4-7.01-17.67-11.06-28.14-11.06s-20.73,4.05-28.14,11.06-11.45,16.29-11.45,26.16,3.65,19.05,10.37,26.46l15.89,17.77c1.97,2.17,2.47,5.33,1.28,8s-3.85,4.44-6.81,4.44h-30.51c-4.05,0-7.4-3.36-7.4-7.4s3.36-7.5,7.4-7.5h13.92l-4.84-5.33c-9.08-10.07-14.12-23-14.12-36.43s5.82-27.25,16.09-36.92c10.27-9.77,23.79-15.1,38.3-15.1s28.04,5.33,38.3,15.1c10.17,9.67,16.09,23.2,16.09,36.92s-5.03,26.26-14.12,36.43l-4.84,5.33h13.92c4.05,0,7.4,3.36,7.4,7.4s-3.36,7.4-7.4,7.4Z"/>
</svg>